<?xml version="1.0" encoding="UTF-8"?>
<svg width="57px" height="16px" viewBox="0 0 57 16" version="1.1" xmlns="http://www.w3.org/2000/svg" xmlns:xlink="http://www.w3.org/1999/xlink">
    <!-- Generator: Sketch 49 (51002) - http://www.bohemiancoding.com/sketch -->
    <title>Install</title>
    <desc>Created with Sketch.</desc>
    <defs></defs>
    <g id="Page-1" stroke="none" stroke-width="1" fill="none" fill-rule="evenodd">
        <g id="6" transform="translate(-843.000000, -36.000000)" fill="#000000">
            <g id="bt" transform="translate(795.000000, 18.000000)">
                <path d="M48.0507812,33 L48.0507812,18.9960938 L50.5117188,18.9960938 L50.5117188,33 L48.0507812,33 Z M53.96875,33 L53.96875,22.4433594 L56.3808594,22.4433594 L56.3808594,24.0839844 C57.2337282,22.8404886 58.3339776,22.21875 59.6816406,22.21875 C60.8600319,22.21875 61.7812467,22.5849573 62.4453125,23.3173828 C63.1093783,24.0498083 63.4414062,25.0377542 63.4414062,26.28125 L63.4414062,33 L61.0292969,33 L61.0292969,27.0039062 C61.0292969,26.1835896 60.8307312,25.5472028 60.4335938,25.0947266 C60.0364563,24.6422503 59.4798213,24.4160156 58.7636719,24.4160156 C58.0540329,24.4160156 57.4794944,24.6520159 57.0400391,25.1240234 C56.6005837,25.596031 56.3808594,26.235673 56.3808594,27.0429688 L56.3808594,33 L53.96875,33 Z M65.5019531,31.6230469 L66.5761719,29.9824219 C67.7285214,30.8483116 68.8808536,31.28125 70.0332031,31.28125 C70.5475286,31.28125 70.9495428,31.1770844 71.2392578,30.96875 C71.5289728,30.7604156 71.6738281,30.470705 71.6738281,30.0996094 C71.6738281,29.949869 71.6363936,29.8147792 71.5615234,29.6943359 C71.4866533,29.5738926 71.388998,29.4713546 71.2685547,29.3867188 C71.1481114,29.3020829 70.9951181,29.2190759 70.8095703,29.1376953 C70.6240225,29.0563147 70.4368499,28.9863284 70.2480469,28.9277344 C70.0592438,28.8691403 69.8444022,28.8040368 69.6035156,28.7324219 C69.5579425,28.719401 69.5221355,28.7096354 69.4960938,28.703125 L69.3203125,28.6445312 C68.9427064,28.5338536 68.6236992,28.4313156 68.3632812,28.3369141 C68.1028633,28.2425125 67.8131526,28.1057952 67.4941406,27.9267578 C67.1751286,27.7477205 66.9179697,27.5556651 66.7226562,27.3505859 C66.5273428,27.1455068 66.3613288,26.8818375 66.2246094,26.5595703 C66.0878899,26.2373031 66.0195312,25.8776062 66.0195312,25.4804688 C66.0195312,24.5039014 66.375973,23.7226592 67.0888672,23.1367188 C67.8017614,22.5507783 68.6985623,22.2578125 69.7792969,22.2578125 C70.4303418,22.2578125 71.0976528,22.3636057 71.78125,22.5751953 C72.4648472,22.7867849 73.0898409,23.0813783 73.65625,23.4589844 L72.6992188,25.1777344 C71.6054633,24.5136686 70.6126347,24.1816406 69.7207031,24.1816406 C69.2584612,24.1816406 68.8955091,24.2809235 68.6318359,24.4794922 C68.3681627,24.6780609 68.2363281,24.9433577 68.2363281,25.2753906 C68.2363281,25.3925787 68.2591144,25.5016271 68.3046875,25.6025391 C68.3502606,25.703451 68.4332676,25.7978511 68.5537109,25.8857422 C68.6741542,25.9736333 68.7832026,26.0485023 68.8808594,26.1103516 C68.9785161,26.1722008 69.133137,26.2438147 69.3447266,26.3251953 C69.5563162,26.4065759 69.7207025,26.4684243 69.8378906,26.5107422 C69.9550787,26.5530601 70.1471341,26.616536 70.4140625,26.7011719 C70.4335938,26.7076823 70.4677732,26.7174479 70.5166016,26.7304688 C70.5654299,26.7434896 70.5996093,26.7532552 70.6191406,26.7597656 C70.9837258,26.8704433 71.2978502,26.9778641 71.5615234,27.0820312 C71.8251966,27.1861984 72.1149073,27.3277986 72.4306641,27.5068359 C72.7464208,27.6858733 73.0019521,27.8779287 73.1972656,28.0830078 C73.3925791,28.288087 73.5585931,28.5468734 73.6953125,28.859375 C73.8320319,29.1718766 73.9003906,29.51367 73.9003906,29.8847656 C73.9003906,30.9524793 73.5341833,31.771156 72.8017578,32.3408203 C72.0693323,32.9104846 71.1269589,33.1953125 69.9746094,33.1953125 C69.2063764,33.1953125 68.4300169,33.0602227 67.6455078,32.7900391 C66.8609987,32.5198554 66.1464876,32.1308619 65.5019531,31.6230469 Z M75.3261719,24.5234375 L75.3261719,22.4433594 L76.6640625,22.4433594 L76.6640625,19.5429688 L79.0859375,19.5429688 L79.0859375,22.4433594 L81.9179688,22.4433594 L81.9179688,24.5234375 L79.0859375,24.5234375 L79.0859375,29.6992188 C79.0859375,30.5781294 79.5188759,31.0175781 80.3847656,31.0175781 C80.9056016,31.0175781 81.4036435,30.8971366 81.8789062,30.65625 L81.8789062,32.6386719 C81.2539031,32.9967466 80.5279989,33.1757812 79.7011719,33.1757812 C77.6764222,33.1757812 76.6640625,32.1438905 76.6640625,30.0800781 L76.6640625,24.5234375 L75.3261719,24.5234375 Z M83.6367188,29.9238281 C83.6367188,28.79101 84.0289674,27.930016 84.8134766,27.3408203 C85.5979857,26.7516247 86.631504,26.4570312 87.9140625,26.4570312 C88.9492239,26.4570312 89.9225215,26.6035142 90.8339844,26.8964844 L90.8339844,26.7011719 C90.8339844,25.9654911 90.6110048,25.4039733 90.1650391,25.0166016 C89.7190733,24.6292298 89.0761761,24.4355469 88.2363281,24.4355469 C87.2858025,24.4355469 86.2799532,24.6568988 85.21875,25.0996094 L84.5546875,23.15625 C85.2057324,22.8632798 85.8388641,22.6435554 86.4541016,22.4970703 C87.069339,22.3505852 87.7773397,22.2773438 88.578125,22.2773438 C90.114591,22.2773438 91.271806,22.6630821 92.0498047,23.4345703 C92.8278034,24.2060585 93.2167969,25.3079355 93.2167969,26.7402344 L93.2167969,33 L90.8144531,33 L90.8144531,31.7011719 C89.9615843,32.716802 88.8222728,33.2246094 87.3964844,33.2246094 C86.7128872,33.2246094 86.0911486,33.1025403 85.53125,32.8583984 C84.9713514,32.6142566 84.5156268,32.2382838 84.1640625,31.7304687 C83.8124982,31.2226537 83.6367188,30.6204462 83.6367188,29.9238281 Z M86.0390625,29.8359375 C86.0390625,30.3177107 86.2311179,30.6985663 86.6152344,30.9785156 C86.9993509,31.2584649 87.4876272,31.3984375 88.0800781,31.3984375 C88.8873738,31.3984375 89.5546849,31.1917338 90.0820312,30.7783203 C90.6093776,30.3649068 90.8730469,29.8326855 90.8730469,29.1816406 L90.8730469,28.5761719 C90.1699184,28.2962226 89.3626348,28.15625 88.4511719,28.15625 C87.6894493,28.15625 87.0970073,28.3027329 86.6738281,28.5957031 C86.2506489,28.8886733 86.0390625,29.3020807 86.0390625,29.8359375 Z M96.234375,33 L96.234375,18.4003906 L98.65625,18.4003906 L98.65625,33 L96.234375,33 Z M101.947266,33 L101.947266,18.4003906 L104.369141,18.4003906 L104.369141,33 L101.947266,33 Z" id="Install"></path>
            </g>
        </g>
    </g>
</svg>